<?xml version="1.0" encoding="UTF-8"?>
<svg id="Layer_1" data-name="Layer 1" xmlns="http://www.w3.org/2000/svg" xmlns:xlink="http://www.w3.org/1999/xlink" viewBox="0 0 398.65 365.34">
  <defs>
    <style>
      .cls-1 {
        fill: #202d44;
      }

      .cls-2 {
        fill: url(#linear-gradient);
      }
    </style>
    <linearGradient id="linear-gradient" x1="118.74" y1="221.56" x2="121.64" y2="221.56" gradientUnits="userSpaceOnUse">
      <stop offset="0" stop-color="#fff"/>
      <stop offset="1" stop-color="#231f20"/>
    </linearGradient>
  </defs>
  <g>
    <path class="cls-1" d="M200.61,203.32c1.42-.38,3.69-.34,4.96.42,13.49,11.71,26.78,23.64,40.34,35.28,14.52,12.47,30.11,24.7,44.21,37.47,4.11,3.73,10.41,9.34,11.51,14.64,3.2,15.48-15.1,26.53-29.18,16.62-10.94-7.7-26.18-23.18-36.32-32.65-15.32-14.31-29.71-29.3-44.46-44.06-2.93-2.93-11.36-7.91-8.56-12.24,3.71-2.09,14.59-14.68,17.51-15.47Z"/>
    <path class="cls-1" d="M170.74,234.67c2-.36,3.25.3,4.76,1.51l18.56,19.32c1.45,1.85.85,3.8-.15,5.71-2.25,4.29-17.23,17.15-21.73,21.91-25.05,26.53-49.6,53.57-74.93,79.89-4.16,2.85-8.78,2.97-13.34.97-3.52-1.54-16.58-13.31-17.74-16.84-2.61-7.95,1.57-12.35,6.36-17.91,15.36-17.84,37.96-36.67,55.21-53.49,11.19-10.91,22.19-23.5,33.72-33.81,1.59-1.42,7.83-7,9.28-7.26Z"/>
    <path class="cls-1" d="M317.71,132.64l7.67,6.48c4.66-2,11.17-3.94,15.5-.96,3.07,2.12.64,5.32,5.36,11.54,2.79,3.67,14.63,15.49,18.32,18.32,1.36,1.05,2.2.95,3.39-.33,9.09-10.18,20.6-19.28,29.49-29.5,2.09-2.4,1.27-2.87-.68-5.08-23.13-26.26-52.24-49.8-75.89-75.88-22.94-21.37-49.25-39.34-77.89-51.95-3.01-1.32-10.05-4.72-12.87-5.21-1.57-.27-2.36.52-2.75,2-.21.81.18,8.34.38,9.48.13.75.16,1.43.7,2.05,61.68,55.21,75.61,75.16,71.87,80.58-1.15,1.66-6.22,5.23-6.06,10.54.08,2.86,1.64,5.14,2.9,6.59-26.62,25.31-53.24,50.63-79.87,75.94-2.59,2.47-2.7,6.57-.24,9.17l13.16,13.91c3.72,3.93,9.97,3.93,13.69.01l73.81-77.67Z"/>
    <path class="cls-1" d="M166.33,165.41c7.61,6.08,15.23,12.16,22.84,18.24.99-.44,1.88-.61,2.64-.63,4.44-.17,8.91,4.14,11.63,10.57-9.45,7.8-18.89,15.6-28.34,23.4-9.06-2.86-14.98-8.49-14.8-13.9.04-1.05.31-2.42,1.27-4-4.59-6.45-9.18-12.91-13.76-19.36-17.42,4.19-34.84,8.37-52.26,12.56-19.38-21.3-45.16-53.5-68.04-97.12C10.94,63.59-7.78,27.91,3.37,16.72,19.47.58,88.88,44.49,110.91,58.42c30.03,19,52.51,37.88,66.94,51.03-3.84,18.66-7.68,37.31-11.52,55.97ZM125.83,154.73c4.62-2.84,9.23-5.68,13.85-8.52-11.78-10.12-23.56-20.24-35.34-30.37,7.16,12.96,14.33,25.93,21.49,38.89Z"/>
  </g>
  <path class="cls-2" d="M120.19,223.06c1.93,0,1.93-3,0-3s-1.93,3,0,3h0Z"/>
</svg>