<?xml version="1.0" encoding="UTF-8"?>
<svg id="Layer_1" data-name="Layer 1" xmlns="http://www.w3.org/2000/svg" viewBox="0 0 1200 699.42">
  <defs>
    <style>
      .cls-1 {
        fill: none;
      }

      .cls-2 {
        fill: #202d44;
      }
    </style>
  </defs>
  <g>
    <g>
      <rect class="cls-1" y="348.55" width="1200" height="194.59"/>
      <path class="cls-2" d="M39.35,540.99c-6.74,0-12.47-1.52-17.2-4.56-4.73-3.04-8.32-7.2-10.77-12.47-2.46-5.28-3.68-11.25-3.68-17.91v-95.18c0-6.59,1.26-12.53,3.79-17.8s6.17-9.45,10.94-12.53c4.76-3.08,10.4-4.62,16.92-4.62,4.91,0,9.3.92,13.19,2.75,3.88,1.83,7.2,4.34,9.95,7.53,2.75,3.19,4.85,6.89,6.32,11.1,1.46,4.21,2.2,8.74,2.2,13.57v22.2h-22.2v-22.2c0-3.37-.7-6.19-2.09-8.46-1.39-2.27-3.7-3.41-6.92-3.41-2.93,0-5.06,1.17-6.37,3.52-1.32,2.35-1.98,5.13-1.98,8.35v95.18c0,3.22.71,6.01,2.14,8.35,1.43,2.35,3.5,3.52,6.21,3.52,3.3,0,5.62-1.13,6.98-3.41,1.35-2.27,2.03-5.09,2.03-8.46v-22.2h22.2v22.2c0,6.59-1.28,12.53-3.85,17.8-2.57,5.28-6.21,9.45-10.94,12.53-4.73,3.08-10.35,4.62-16.87,4.62Z"/>
      <path class="cls-2" d="M125.72,539.23v-161.56h30.11l12.97,83.75,1.1,8.57h.44l1.1-8.57,12.97-83.75h30.11v161.56h-21.98v-108.36h-1.32l-.88,6.81-14.07,101.55h-12.31l-14.07-101.55-.88-6.81h-1.32v108.36h-21.98Z"/>
      <path class="cls-2" d="M248.26,540.99c-5.13,0-9.56-2.6-13.3-7.8-3.74-5.2-5.6-13.15-5.6-23.85s2.22-18.65,6.65-24.95c4.43-6.3,11.08-11.76,19.95-16.38,2.78-1.46,5.13-2.78,7.03-3.96,1.9-1.17,3.08-2.27,3.52-3.3v-13.19c0-3-.35-5.59-1.04-7.75-.7-2.16-2.4-3.24-5.11-3.24-2.49,0-4.18,1.15-5.06,3.46-.88,2.31-1.32,5.18-1.32,8.63v5.71h-22.2v-5.06c0-6.59,1.3-12.29,3.9-17.09,2.6-4.8,6.15-8.5,10.66-11.1,4.51-2.6,9.62-3.9,15.33-3.9s10.26,1.26,14.29,3.79c4.03,2.53,7.16,6.01,9.4,10.44,2.23,4.43,3.35,9.51,3.35,15.22v71.66c0,5.35.15,9.51.44,12.47.29,2.97.66,5.77,1.1,8.41h-21.76c-.95-1.17-1.52-2.89-1.7-5.17-.18-2.27-.27-3.77-.27-4.51h-1.54c-1.83,3.37-4.16,6.12-6.98,8.24-2.82,2.12-6.06,3.19-9.73,3.19ZM257.28,519.23c2.56,0,4.74-.88,6.54-2.64,1.79-1.76,2.69-3.66,2.69-5.71v-28.58c-5.35,2.27-9.25,5.7-11.7,10.28-2.46,4.58-3.68,9.73-3.68,15.44,0,2.49.48,4.98,1.43,7.47.95,2.49,2.53,3.74,4.73,3.74Z"/>
      <path class="cls-2" d="M303.43,539.23v-120.23h22.2v13.41c.44-2.93,1.79-5.53,4.07-7.8,2.27-2.27,5.04-4.07,8.3-5.38,3.26-1.32,6.54-1.98,9.84-1.98v24.62c-.95-.37-1.96-.6-3.02-.71-1.06-.11-2.11-.17-3.13-.17-4.84,0-8.72,1.32-11.65,3.96-2.93,2.64-4.4,6.23-4.4,10.77v83.53h-22.2Z"/>
      <path class="cls-2" d="M390.04,540.99c-6.96,0-12.27-1.54-15.94-4.62-3.66-3.08-6.17-7.47-7.53-13.19-1.36-5.71-2.03-12.53-2.03-20.44v-63.74h-11.21v-20h11.21v-29.67h22.2v29.67h15.28v20h-15.28v66.93c0,4.69.7,8.15,2.09,10.39,1.39,2.24,3.66,3.35,6.81,3.35,1.39,0,2.62-.11,3.68-.33,1.06-.22,1.92-.48,2.58-.77v20.33c-1.47.59-3.06,1.08-4.78,1.48-1.72.4-4.09.6-7.09.6Z"/>
      <path class="cls-2" d="M450.15,539.23v-161.56h30.11l12.97,83.75,1.1,8.57h.44l1.1-8.57,12.97-83.75h30.11v161.56h-21.98v-108.36h-1.32l-.88,6.81-14.07,101.55h-12.31l-14.07-101.55-.88-6.81h-1.32v108.36h-21.98Z"/>
      <path class="cls-2" d="M572.69,540.99c-5.13,0-9.56-2.6-13.3-7.8-3.74-5.2-5.6-13.15-5.6-23.85s2.22-18.65,6.65-24.95c4.43-6.3,11.08-11.76,19.95-16.38,2.78-1.46,5.13-2.78,7.03-3.96,1.9-1.17,3.08-2.27,3.52-3.3v-13.19c0-3-.35-5.59-1.04-7.75-.7-2.16-2.4-3.24-5.11-3.24-2.49,0-4.18,1.15-5.06,3.46-.88,2.31-1.32,5.18-1.32,8.63v5.71h-22.2v-5.06c0-6.59,1.3-12.29,3.9-17.09,2.6-4.8,6.15-8.5,10.66-11.1,4.51-2.6,9.62-3.9,15.33-3.9s10.26,1.26,14.29,3.79c4.03,2.53,7.16,6.01,9.4,10.44,2.23,4.43,3.35,9.51,3.35,15.22v71.66c0,5.35.15,9.51.44,12.47.29,2.97.66,5.77,1.1,8.41h-21.76c-.95-1.17-1.52-2.89-1.7-5.17-.18-2.27-.27-3.77-.27-4.51h-1.54c-1.83,3.37-4.16,6.12-6.98,8.24-2.82,2.12-6.06,3.19-9.73,3.19ZM581.7,519.23c2.56,0,4.74-.88,6.54-2.64,1.79-1.76,2.69-3.66,2.69-5.71v-28.58c-5.35,2.27-9.25,5.7-11.7,10.28-2.46,4.58-3.68,9.73-3.68,15.44,0,2.49.48,4.98,1.43,7.47.95,2.49,2.53,3.74,4.73,3.74Z"/>
      <path class="cls-2" d="M656.65,540.99c-5.2,0-9.75-.88-13.63-2.64-3.88-1.76-7.11-4.27-9.67-7.53-2.57-3.26-4.49-7.12-5.77-11.59-1.28-4.47-1.92-9.45-1.92-14.95h20.66c0,4.91.79,9.18,2.36,12.8,1.58,3.63,4.23,5.44,7.97,5.44,3.22,0,5.31-1.36,6.26-4.07.95-2.71,1.43-5.83,1.43-9.34,0-4.1-1.59-8.3-4.78-12.58s-6.5-8.11-9.95-11.48c-5.93-5.86-10.86-11.65-14.78-17.37-3.92-5.71-5.88-12.42-5.88-20.11,0-9.08,2.38-16.41,7.14-21.98,4.76-5.57,11.54-8.35,20.33-8.35,5.28,0,9.73.7,13.35,2.09,3.63,1.39,6.54,3.48,8.74,6.26,2.2,2.79,3.79,6.19,4.78,10.22.99,4.03,1.48,8.68,1.48,13.96h-20.66c0-3.81-.4-7.11-1.21-9.89-.81-2.78-2.82-4.18-6.04-4.18-2.64,0-4.51,1.12-5.61,3.35-1.1,2.24-1.65,5.08-1.65,8.52,0,4.03.97,7.6,2.91,10.72,1.94,3.12,5.18,6.91,9.73,11.38,5.71,5.57,10.94,11.5,15.66,17.8,4.73,6.3,7.09,13.15,7.09,20.55,0,4.84-.64,9.27-1.92,13.3-1.28,4.03-3.15,7.51-5.61,10.44-2.46,2.93-5.42,5.2-8.9,6.81-3.48,1.61-7.46,2.42-11.92,2.42Z"/>
      <path class="cls-2" d="M723.36,540.77c-8.87,0-15.83-2.99-20.88-8.96s-7.58-13.54-7.58-22.7v-60.23c0-9.16,2.53-16.72,7.58-22.7,5.06-5.97,12.02-8.96,20.88-8.96s15.73,2.99,20.83,8.96c5.09,5.97,7.64,13.54,7.64,22.7v60.23c0,9.16-2.55,16.72-7.64,22.7-5.09,5.97-12.03,8.96-20.83,8.96ZM723.36,521.43c2.86,0,4.83-1.15,5.93-3.46,1.1-2.31,1.65-5.26,1.65-8.85v-60.23c0-3.66-.55-6.63-1.65-8.9-1.1-2.27-3.08-3.41-5.93-3.41s-4.84,1.14-5.94,3.41c-1.1,2.27-1.65,5.24-1.65,8.9v60.23c0,3.66.55,6.63,1.65,8.9,1.1,2.27,3.08,3.41,5.94,3.41Z"/>
      <path class="cls-2" d="M763.92,539.23v-120.23h22.2v10.11c2.64-2.56,5.61-5.18,8.9-7.86,3.3-2.67,6.34-4.01,9.12-4.01,3.66,0,6.74,1.17,9.23,3.52,2.49,2.35,4.36,5.31,5.61,8.9,1.25,3.59,1.87,7.29,1.87,11.1v98.47h-22.2v-94.08c0-2.34-.4-3.99-1.21-4.95-.81-.95-2.16-1.43-4.07-1.43-1.61,0-2.99.57-4.12,1.7s-2.18,2.47-3.13,4.01v94.74h-22.2Z"/>
      <path class="cls-2" d="M834.03,539.23v-120.23h22.2v13.41c.44-2.93,1.79-5.53,4.07-7.8,2.27-2.27,5.04-4.07,8.3-5.38,3.26-1.32,6.54-1.98,9.84-1.98v24.62c-.95-.37-1.96-.6-3.02-.71-1.06-.11-2.11-.17-3.13-.17-4.84,0-8.72,1.32-11.65,3.96-2.93,2.64-4.4,6.23-4.4,10.77v83.53h-22.2Z"/>
      <path class="cls-2" d="M892.61,582.31c-.95,0-2.09-.04-3.41-.11-1.32-.07-2.6-.22-3.85-.44v-19.67c.22.07.81.17,1.76.28.95.11,1.58.17,1.87.17,4.1,0,7.42-1.1,9.95-3.3,2.53-2.2,4.3-5.13,5.33-8.79.37-1.1.57-2.38.6-3.85.04-1.47.06-2.75.06-3.85l-20.44-123.75h21.76l8.79,74.95.44,8.35h.88l.44-8.35,8.79-74.95h21.76l-21.32,129.25c-.81,6.45-2.62,12.25-5.44,17.42-2.82,5.17-6.58,9.23-11.27,12.2-4.69,2.97-10.26,4.45-16.71,4.45Z"/>
      <path class="cls-2" d="M996.02,539.23v-161.56h23.74v139.58h31.43v21.98h-55.17Z"/>
      <path class="cls-2" d="M1063.06,539.23v-161.56h23.74v139.58h31.43v21.98h-55.17Z"/>
      <path class="cls-2" d="M1160.66,540.99c-6.74,0-12.47-1.52-17.2-4.56-4.73-3.04-8.32-7.2-10.77-12.47-2.46-5.28-3.68-11.25-3.68-17.91v-95.18c0-6.59,1.26-12.53,3.79-17.8,2.53-5.28,6.17-9.45,10.94-12.53,4.76-3.08,10.4-4.62,16.93-4.62,4.91,0,9.3.92,13.19,2.75,3.88,1.83,7.2,4.34,9.95,7.53,2.75,3.19,4.85,6.89,6.32,11.1,1.46,4.21,2.2,8.74,2.2,13.57v22.2h-22.2v-22.2c0-3.37-.7-6.19-2.09-8.46-1.39-2.27-3.7-3.41-6.92-3.41-2.93,0-5.06,1.17-6.38,3.52-1.32,2.35-1.98,5.13-1.98,8.35v95.18c0,3.22.71,6.01,2.14,8.35,1.43,2.35,3.5,3.52,6.21,3.52,3.3,0,5.62-1.13,6.98-3.41,1.35-2.27,2.03-5.09,2.03-8.46v-22.2h22.2v22.2c0,6.59-1.28,12.53-3.85,17.8-2.57,5.28-6.21,9.45-10.94,12.53-4.73,3.08-10.35,4.62-16.87,4.62Z"/>
    </g>
    <g>
      <path class="cls-2" d="M222.25,671.94v-80.78h12.09c4.1,0,7.65.72,10.63,2.17,2.99,1.45,5.29,3.71,6.92,6.79,1.63,3.08,2.45,7.05,2.45,11.92,0,3.88-.5,7.27-1.51,10.17-1.01,2.89-2.96,5.26-5.85,7.09,2.93,1.61,5.04,4.17,6.32,7.67,1.28,3.5,1.92,7.54,1.92,12.12s-.72,8.48-2.17,11.92c-1.45,3.44-3.57,6.13-6.37,8.05-2.8,1.92-6.26,2.88-10.36,2.88h-14.07ZM234.11,624.46c3.33,0,5.63-.92,6.9-2.75,1.26-1.83,1.9-4.54,1.9-8.13s-.65-6.31-1.95-8.05c-1.3-1.74-3.58-2.61-6.84-2.61v21.54ZM234.11,660.18c3.59,0,5.95-1.07,7.09-3.21,1.13-2.14,1.7-5.21,1.7-9.2s-.57-7.15-1.7-9.26c-1.14-2.11-3.5-3.16-7.09-3.16v24.84Z"/>
      <path class="cls-2" d="M271.59,671.94v-60.12h11.1v6.7c.22-1.46.9-2.77,2.03-3.9,1.14-1.13,2.52-2.03,4.15-2.69,1.63-.66,3.27-.99,4.92-.99v12.31c-.48-.18-.98-.3-1.51-.36-.53-.05-1.05-.08-1.57-.08-2.42,0-4.36.66-5.82,1.98-1.47,1.32-2.2,3.11-2.2,5.39v41.76h-11.1Z"/>
      <path class="cls-2" d="M309.18,602.26v-11.1h11.1v11.1h-11.1ZM309.18,671.94v-60.12h11.1v60.12h-11.1Z"/>
      <path class="cls-2" d="M350.94,672.77c-4.87,0-8.45-1.52-10.74-4.56-2.29-3.04-3.43-7.27-3.43-12.69v-27.31c0-5.46,1.14-9.7,3.43-12.72,2.29-3.02,5.87-4.53,10.74-4.53s8.47,1.52,10.8,4.56c2.33,3.04,3.49,7.27,3.49,12.69v4.73h-11.1v-6.15c0-1.68-.22-3.1-.66-4.23-.44-1.13-1.28-1.7-2.53-1.7s-2.07.58-2.47,1.73c-.4,1.15-.6,2.56-.6,4.2v30.17c0,1.65.2,3.05.6,4.2.4,1.15,1.23,1.73,2.47,1.73s2.09-.57,2.53-1.7c.44-1.13.66-2.55.66-4.23v-6.15h11.1v4.73c0,5.42-1.16,9.65-3.49,12.69-2.33,3.04-5.93,4.56-10.8,4.56Z"/>
      <path class="cls-2" d="M381.16,671.94v-80.78h11.1v38.36h.55l.66-1.98,5.39-15.72h10.55l-8.57,19.56,10.11,40.55h-11.21l-5.5-24.29-.11-.88h-.11l-1.76,4.4v20.77h-11.1Z"/>
      <path class="cls-2" d="M469.36,672.82c-3.26,0-5.97-.54-8.13-1.62-2.16-1.08-3.87-2.65-5.11-4.7-1.25-2.05-2.13-4.52-2.67-7.42-.53-2.89-.8-6.16-.8-9.78l11.65-1.1c0,1.76.06,3.45.19,5.08.13,1.63.37,3.1.71,4.4.35,1.3.86,2.33,1.54,3.1.68.77,1.55,1.15,2.61,1.15,1.76,0,3-.82,3.74-2.45.73-1.63,1.1-3.6,1.1-5.91s-.6-4.71-1.81-7.2c-1.21-2.49-2.66-4.85-4.34-7.09-2.86-3.81-5.36-7.34-7.5-10.61-2.14-3.26-3.81-6.46-5-9.62-1.19-3.15-1.79-6.45-1.79-9.89,0-2.71.35-5.21,1.04-7.5.7-2.29,1.71-4.29,3.05-5.99,1.34-1.7,2.96-3.03,4.86-3.98,1.9-.95,4.08-1.43,6.54-1.43,3.04,0,5.61.51,7.72,1.54,2.11,1.03,3.81,2.49,5.11,4.4,1.3,1.91,2.25,4.17,2.86,6.79s.91,5.52.91,8.71l-11.65,1.1c0-1.35-.06-2.72-.19-4.09-.13-1.37-.36-2.63-.69-3.76-.33-1.14-.81-2.05-1.43-2.75-.62-.7-1.43-1.04-2.42-1.04-1.54,0-2.6.65-3.19,1.95-.59,1.3-.88,3.14-.88,5.52,0,3.08.82,6.04,2.47,8.9s3.86,6.19,6.65,10c3.33,4.51,6.05,8.65,8.16,12.42,2.11,3.77,3.16,7.95,3.16,12.53,0,2.89-.31,5.58-.93,8.05-.62,2.47-1.6,4.62-2.94,6.46-1.34,1.83-3.04,3.26-5.11,4.29-2.07,1.03-4.57,1.54-7.5,1.54Z"/>
      <path class="cls-2" d="M517.72,672.82c-3.48,0-6.14-.77-7.97-2.31-1.83-1.54-3.09-3.74-3.76-6.59-.68-2.86-1.02-6.26-1.02-10.22v-31.87h-5.61v-10h5.61v-14.84h11.1v14.84h7.64v10h-7.64v33.46c0,2.34.35,4.08,1.04,5.19.7,1.12,1.83,1.68,3.41,1.68.7,0,1.31-.05,1.84-.17.53-.11.96-.24,1.29-.38v10.17c-.73.29-1.53.54-2.39.74-.86.2-2.04.3-3.54.3Z"/>
      <path class="cls-2" d="M551.68,672.71c-4.43,0-7.91-1.49-10.44-4.48-2.53-2.99-3.79-6.77-3.79-11.35v-30.11c0-4.58,1.26-8.36,3.79-11.35,2.53-2.99,6.01-4.48,10.44-4.48s7.87,1.49,10.41,4.48c2.55,2.99,3.82,6.77,3.82,11.35v30.11c0,4.58-1.27,8.36-3.82,11.35-2.55,2.99-6.02,4.48-10.41,4.48ZM551.68,663.04c1.43,0,2.42-.58,2.97-1.73.55-1.15.82-2.63.82-4.42v-30.11c0-1.83-.27-3.32-.82-4.45-.55-1.13-1.54-1.7-2.97-1.7s-2.42.57-2.97,1.7c-.55,1.14-.82,2.62-.82,4.45v30.11c0,1.83.27,3.32.82,4.45.55,1.14,1.54,1.7,2.97,1.7Z"/>
      <path class="cls-2" d="M581.84,671.94v-60.12h11.1v5.06c1.32-1.28,2.8-2.59,4.45-3.93,1.65-1.34,3.17-2.01,4.56-2.01,1.83,0,3.37.59,4.62,1.76,1.25,1.17,2.18,2.66,2.8,4.45s.93,3.65.93,5.55v49.24h-11.1v-47.04c0-1.17-.2-2-.6-2.47-.4-.48-1.08-.71-2.03-.71-.81,0-1.49.28-2.06.85s-1.09,1.24-1.57,2.01v47.37h-11.1Z"/>
      <path class="cls-2" d="M640.53,672.82c-4.43,0-7.92-1.53-10.47-4.59-2.55-3.06-3.82-6.8-3.82-11.24v-30.22c0-4.69,1.26-8.5,3.79-11.43,2.53-2.93,6.06-4.4,10.61-4.4,2.97,0,5.52.68,7.67,2.03,2.14,1.36,3.78,3.2,4.92,5.52,1.13,2.33,1.7,4.97,1.7,7.94v17.47h-18.35v13.08c0,1.5.34,2.89,1.02,4.15.68,1.26,1.69,1.9,3.05,1.9,1.43,0,2.45-.58,3.05-1.76s.91-2.6.91-4.29v-6.59h10.33v6.92c0,4.65-1.26,8.4-3.76,11.24-2.51,2.84-6.05,4.26-10.63,4.26ZM636.57,635.23h8.02v-8.46c0-1.65-.28-3.09-.85-4.31-.57-1.23-1.6-1.84-3.1-1.84-1.39,0-2.42.63-3.08,1.9-.66,1.26-.99,2.68-.99,4.26v8.46Z"/>
      <path class="cls-2" d="M715.04,672.82c-4.73,0-8.62-1.53-11.68-4.59-3.06-3.06-4.59-7.46-4.59-13.22,0-3.59.48-6.8,1.46-9.64.97-2.84,2.16-5.39,3.57-7.67s2.78-4.3,4.09-6.1c-1.91-3.96-3.33-7.85-4.29-11.68-.95-3.83-1.43-7.85-1.43-12.06,0-5.02,1.23-9.2,3.68-12.56,2.45-3.35,6.06-5.03,10.83-5.03s8.17,1.65,10.55,4.95c2.38,3.3,3.57,7.34,3.57,12.14,0,3.99-1.06,7.96-3.19,11.9-2.12,3.94-4.71,7.9-7.75,11.9,1.76,3.99,3.26,7.15,4.51,9.48,1.25,2.33,2.38,4.26,3.41,5.8.73-2.05,1.31-4.22,1.73-6.51.42-2.29.69-3.89.8-4.81l9.45,1.76c-.26,3.11-.9,6.43-1.92,9.95-1.03,3.52-2.22,6.61-3.57,9.29.73.81,1.63,1.6,2.69,2.39,1.06.79,2,1.35,2.8,1.68v12.64c-1.03,0-2.29-.44-3.79-1.32s-2.94-1.9-4.31-3.08c-1.37-1.17-2.41-2.2-3.1-3.08-1.69,2.23-3.54,4.04-5.55,5.41-2.02,1.37-4.67,2.06-7.97,2.06ZM715.59,662.49c1.5,0,2.77-.44,3.79-1.32,1.03-.88,2-1.98,2.91-3.3-1.47-2.38-2.96-4.84-4.48-7.36-1.52-2.53-3.14-5.35-4.86-8.46-.81,1.36-1.47,3.12-1.98,5.3-.51,2.18-.77,4.13-.77,5.85,0,2.34.44,4.48,1.32,6.4.88,1.92,2.23,2.89,4.07,2.89ZM715.48,621.06c1.32-2.05,2.55-4.29,3.68-6.7,1.13-2.42,1.7-4.69,1.7-6.81s-.29-4-.88-5.52c-.59-1.52-1.69-2.28-3.3-2.28s-2.67.79-3.3,2.36c-.62,1.58-.93,3.44-.93,5.61,0,2.27.28,4.53.85,6.76.57,2.24,1.29,4.43,2.17,6.59Z"/>
      <path class="cls-2" d="M785.82,671.94v-80.78h12.09c4.1,0,7.65.72,10.63,2.17,2.99,1.45,5.29,3.71,6.92,6.79s2.45,7.05,2.45,11.92c0,3.88-.5,7.27-1.51,10.17-1.01,2.89-2.96,5.26-5.85,7.09,2.93,1.61,5.04,4.17,6.32,7.67,1.28,3.5,1.92,7.54,1.92,12.12s-.72,8.48-2.17,11.92c-1.45,3.44-3.57,6.13-6.37,8.05-2.8,1.92-6.26,2.88-10.36,2.88h-14.07ZM797.69,624.46c3.33,0,5.63-.92,6.9-2.75,1.26-1.83,1.9-4.54,1.9-8.13s-.65-6.31-1.95-8.05c-1.3-1.74-3.58-2.61-6.84-2.61v21.54ZM797.69,660.18c3.59,0,5.95-1.07,7.09-3.21,1.13-2.14,1.7-5.21,1.7-9.2s-.57-7.15-1.7-9.26c-1.14-2.11-3.5-3.16-7.09-3.16v24.84Z"/>
      <path class="cls-2" d="M835.71,671.94v-80.78h11.1v80.78h-11.1Z"/>
      <path class="cls-2" d="M877.53,672.71c-4.43,0-7.91-1.49-10.44-4.48-2.53-2.99-3.79-6.77-3.79-11.35v-30.11c0-4.58,1.26-8.36,3.79-11.35,2.53-2.99,6.01-4.48,10.44-4.48s7.87,1.49,10.41,4.48c2.55,2.99,3.82,6.77,3.82,11.35v30.11c0,4.58-1.27,8.36-3.82,11.35-2.55,2.99-6.02,4.48-10.41,4.48ZM877.53,663.04c1.43,0,2.42-.58,2.97-1.73.55-1.15.82-2.63.82-4.42v-30.11c0-1.83-.27-3.32-.82-4.45-.55-1.13-1.54-1.7-2.97-1.7s-2.42.57-2.97,1.7c-.55,1.14-.82,2.62-.82,4.45v30.11c0,1.83.28,3.32.82,4.45.55,1.14,1.54,1.7,2.97,1.7Z"/>
      <path class="cls-2" d="M921.33,672.77c-4.87,0-8.45-1.52-10.74-4.56-2.29-3.04-3.43-7.27-3.43-12.69v-27.31c0-5.46,1.14-9.7,3.43-12.72,2.29-3.02,5.87-4.53,10.74-4.53s8.47,1.52,10.8,4.56c2.33,3.04,3.49,7.27,3.49,12.69v4.73h-11.1v-6.15c0-1.68-.22-3.1-.66-4.23-.44-1.13-1.28-1.7-2.53-1.7s-2.07.58-2.47,1.73-.6,2.56-.6,4.2v30.17c0,1.65.2,3.05.6,4.2s1.23,1.73,2.47,1.73,2.09-.57,2.53-1.7c.44-1.13.66-2.55.66-4.23v-6.15h11.1v4.73c0,5.42-1.16,9.65-3.49,12.69-2.33,3.04-5.93,4.56-10.8,4.56Z"/>
      <path class="cls-2" d="M951.55,671.94v-80.78h11.1v38.36h.55l.66-1.98,5.39-15.72h10.55l-8.57,19.56,10.11,40.55h-11.21l-5.5-24.29-.11-.88h-.11l-1.76,4.4v20.77h-11.1Z"/>
    </g>
  </g>
  <g>
    <path class="cls-2" d="M588.02,203.32c1.42-.38,3.69-.34,4.96.42,13.49,11.71,26.78,23.64,40.34,35.28,14.52,12.47,30.11,24.7,44.21,37.47,4.11,3.73,10.41,9.34,11.51,14.64,3.2,15.48-15.1,26.53-29.18,16.62-10.94-7.7-26.18-23.18-36.32-32.65-15.32-14.31-29.71-29.3-44.46-44.06-2.93-2.93-11.36-7.91-8.56-12.24,3.71-2.09,14.59-14.68,17.51-15.47Z"/>
    <path class="cls-2" d="M558.15,234.67c2-.36,3.25.3,4.76,1.51l18.56,19.32c1.45,1.85.85,3.8-.15,5.71-2.25,4.29-17.23,17.15-21.73,21.91-25.05,26.53-49.6,53.57-74.93,79.89-4.16,2.85-8.78,2.97-13.34.97-3.52-1.54-16.58-13.31-17.74-16.84-2.61-7.95,1.57-12.35,6.36-17.91,15.36-17.84,37.96-36.67,55.21-53.49,11.19-10.91,22.19-23.5,33.72-33.81,1.59-1.42,7.83-7,9.28-7.26Z"/>
    <path class="cls-2" d="M705.12,132.64l7.67,6.48c4.66-2,11.17-3.94,15.5-.96,3.07,2.12.64,5.32,5.36,11.54,2.79,3.67,14.63,15.49,18.32,18.32,1.36,1.05,2.2.95,3.39-.33,9.09-10.18,20.6-19.28,29.49-29.5,2.09-2.4,1.27-2.87-.68-5.08-23.13-26.26-52.24-49.8-75.89-75.88-22.94-21.37-49.25-39.34-77.89-51.95-3.01-1.32-10.05-4.72-12.87-5.21-1.57-.27-2.36.52-2.75,2-.21.81.18,8.34.38,9.48.13.75.16,1.43.7,2.05,61.68,55.21,75.61,75.16,71.87,80.58-1.15,1.66-6.22,5.23-6.06,10.54.08,2.86,1.64,5.14,2.9,6.59-26.62,25.31-53.24,50.63-79.87,75.94-2.59,2.47-2.7,6.57-.24,9.17l13.16,13.91c3.72,3.93,9.97,3.93,13.69.01l73.81-77.67Z"/>
    <path class="cls-2" d="M553.74,165.41c7.61,6.08,15.23,12.16,22.84,18.24.99-.44,1.88-.61,2.64-.63,4.44-.17,8.91,4.14,11.63,10.57-9.45,7.8-18.89,15.6-28.34,23.4-9.06-2.86-14.98-8.49-14.8-13.9.04-1.05.31-2.42,1.27-4-4.59-6.45-9.18-12.91-13.76-19.36-17.42,4.19-34.84,8.37-52.26,12.56-19.38-21.3-45.16-53.5-68.04-97.12-16.57-31.59-35.29-67.28-24.14-78.46,16.1-16.15,85.51,27.77,107.54,41.7,30.03,19,52.51,37.88,66.94,51.03-3.84,18.66-7.68,37.31-11.52,55.97ZM513.24,154.73c4.62-2.84,9.23-5.68,13.85-8.52-11.78-10.12-23.56-20.24-35.34-30.37,7.16,12.96,14.33,25.93,21.49,38.89Z"/>
  </g>
</svg>